<svg xmlns="http://www.w3.org/2000/svg" viewBox="0 0 92.05 89.52"><defs><style>.cls-1,.cls-2{fill:#29abe2;}.cls-1{stroke:#29abe2;stroke-miterlimit:10;stroke-width:0.75px;}.cls-3{fill:aqua;opacity:0.13;}</style></defs><title>zzz_1</title><g id="Layer_2" data-name="Layer 2"><g id="Layer_1-2" data-name="Layer 1"><path class="cls-1" d="M40.83,62.12v9.79h8.68V62.12ZM49,71.41H41.33V62.62H49Z"/><path class="cls-1" d="M40.33,61.62V72.41H50V61.62ZM49,71.41H41.33V62.62H49Z"/><path class="cls-1" d="M54.72,54.88v17H63.4v-17ZM62.9,71.41H55.22v-16H62.9Z"/><path class="cls-1" d="M54.22,54.38v18H63.9v-18Zm8.68,17H55.22v-16H62.9Z"/><path class="cls-1" d="M68.61,45.26V71.91h8.68V45.26Zm8.18,26.15H69.11V45.76h7.68Z"/><path class="cls-1" d="M68.11,44.76V72.41h9.68V44.76Zm8.68,26.65H69.11V45.76h7.68Z"/><path class="cls-1" d="M82,29.64V72.41h9.68V29.64Zm8.68,41.77H83V30.64h7.68Z"/><path class="cls-2" d="M86.84,16.94c-.06,1.47-.13,3-.22,4.48l-1.2-.78-1.59,2.44-2.34,3.14L80.31,27.8l-1.26,1.49-2.55,3-2.71,2.83-1.37,1.4L71,37.84c-1,.87-1.9,1.8-2.92,2.62a88.74,88.74,0,0,1-12.75,9.11,70.6,70.6,0,0,1-14.26,6.61l-.22-.77-.22-.78c.66-.21,1.33-.44,2-.69a72.48,72.48,0,0,0,11.9-5.76,89.06,89.06,0,0,0,12.52-9c1-.81,1.91-1.72,2.86-2.58l1.42-1.3L72.63,34l2.67-2.78,2.5-2.93,1.25-1.47,1.15-1.55,2.3-3.09,1.57-2.4-.33-.22L82.87,19C84.18,18.32,85.5,17.64,86.84,16.94Z"/><path class="cls-3" d="M43.32,2.57C15.78,14.3,10.78,31.46,5.66,40.7-16,82.18,29.91,94.54,55.17,87.78A17.51,17.51,0,0,0,67.41,66.3c-4.85-17.83.22-24.41,5.17-39.23C75.33,9.6,62.3-6.38,43.32,2.57Z"/></g></g></svg>