<svg xmlns="http://www.w3.org/2000/svg" viewBox="0 0 88.5 89.52"><defs><style>.cls-1,.cls-2{fill:none;stroke:#29abe2;stroke-miterlimit:10;stroke-width:2px;}.cls-2{stroke-linecap:round;}.cls-3{fill:aqua;opacity:0.13;}</style></defs><title>zzz</title><g id="Layer_2" data-name="Layer 2"><g id="Layer_1-2" data-name="Layer 1"><path class="cls-1" d="M87.5,39.87a17.24,17.24,0,0,1-4.65,11.82,4.78,4.78,0,0,0-1.31,3.4,11,11,0,0,1-.48,3.51,11.62,11.62,0,0,1-3.69,5.54,1.89,1.89,0,0,1-1.19.41H64a1.85,1.85,0,0,1-1.2-.42,11.32,11.32,0,0,1-4.08-8.73v-.26a5.38,5.38,0,0,0-1.45-3.6A17.36,17.36,0,1,1,87.5,39.87Z"/><line class="cls-2" x1="64.43" y1="69.48" x2="76.27" y2="69.48"/><line class="cls-2" x1="64.18" y1="73.4" x2="76.52" y2="73.4"/><line class="cls-2" x1="64.78" y1="77.31" x2="75.93" y2="77.31"/><path class="cls-1" d="M66.48,64.55C66.24,53,64.43,46,63.32,42.83a1.59,1.59,0,0,1,1.51-2.11h10a1.58,1.58,0,0,1,1.5,2.11C75.21,46,73.39,53,73.16,64.55"/><path class="cls-3" d="M43.32,2.57C15.78,14.3,10.78,31.46,5.66,40.7-16,82.18,29.91,94.54,55.17,87.78A17.51,17.51,0,0,0,67.41,66.3c-4.85-17.83.22-24.41,5.17-39.23C75.33,9.6,62.3-6.38,43.32,2.57Z"/></g></g></svg>