<svg xmlns="http://www.w3.org/2000/svg" viewBox="0 0 101.17 89.52"><defs><style>.cls-1{fill:none;stroke:#29abe2;stroke-miterlimit:10;}.cls-2{fill:#29abe2;}.cls-3{fill:aqua;opacity:0.13;}</style></defs><title>zzzzz</title><g id="Layer_2" data-name="Layer 2"><g id="Layer_1-2" data-name="Layer 1"><circle class="cls-1" cx="72.05" cy="49.08" r="28.61"/><path class="cls-2" d="M82.77,53.87a6.63,6.63,0,0,1-2.63,5.24,12.1,12.1,0,0,1-6.62,2.63v4.45H70.86V61.84a26.6,26.6,0,0,1-5.07-.52A21.36,21.36,0,0,1,61.34,60V55.8h.35a17.21,17.21,0,0,0,4.16,2,21.09,21.09,0,0,0,5,1v-9l-1.42-.31c-.56-.11-1-.23-1.42-.34a9.42,9.42,0,0,1-5-2.58,6.2,6.2,0,0,1-1.5-4.23,6.51,6.51,0,0,1,2.59-5.13,11.72,11.72,0,0,1,6.76-2.54V31.06h2.66v3.57a25.48,25.48,0,0,1,4.4.53,24.24,24.24,0,0,1,3.73,1V40.3H81.3a22.55,22.55,0,0,0-3.59-1.74,14.55,14.55,0,0,0-4.19-.92v8.93c.52.1,1,.2,1.44.31l1.16.26A10,10,0,0,1,81,49.44,5.81,5.81,0,0,1,82.77,53.87ZM70.86,46.26v-8.6a6.68,6.68,0,0,0-3.52,1.22,3.41,3.41,0,0,0-1.42,2.92,3.75,3.75,0,0,0,1,2.85A8.07,8.07,0,0,0,70.86,46.26Zm7.5,8.15a3.56,3.56,0,0,0-1.12-2.89,8.33,8.33,0,0,0-3.72-1.41v8.62a6.61,6.61,0,0,0,3.61-1.28A3.74,3.74,0,0,0,78.36,54.41Z"/><path class="cls-3" d="M43.32,2.57C15.78,14.3,10.78,31.46,5.66,40.7-16,82.18,29.91,94.54,55.17,87.78A17.51,17.51,0,0,0,67.41,66.3c-4.85-17.83.22-24.41,5.17-39.23C75.33,9.6,62.3-6.38,43.32,2.57Z"/></g></g></svg>