<svg xmlns="http://www.w3.org/2000/svg" viewBox="0 0 120.43 89.52"><defs><style>.cls-1{fill:aqua;opacity:0.13;}.cls-2{fill:#29abe2;}.cls-3{fill:none;stroke:#29abe2;stroke-miterlimit:10;stroke-width:2px;}</style></defs><title>zz</title><g id="Layer_2" data-name="Layer 2"><g id="Layer_1-2" data-name="Layer 1"><path class="cls-1" d="M43.32,2.57C15.78,14.3,10.78,31.46,5.66,40.7-16,82.18,29.91,94.54,55.17,87.78A17.51,17.51,0,0,0,67.41,66.3c-4.85-17.83.22-24.41,5.17-39.23C75.33,9.6,62.3-6.38,43.32,2.57Z"/><path class="cls-2" d="M105.74,17.58H46a6,6,0,0,0-6,6V66.84a6,6,0,0,0,6,6H85.9a18.94,18.94,0,0,1-.71-2H46a4,4,0,0,1-4-4V23.6a4,4,0,0,1,4-4h59.75a4,4,0,0,1,4,4V46.3a19.77,19.77,0,0,1,2,.71V23.6A6,6,0,0,0,105.74,17.58Z"/><line class="cls-3" x1="40.97" y1="27.94" x2="110.76" y2="27.94"/><path class="cls-2" d="M104.16,49a16.28,16.28,0,1,0,16.27,16.28A16.3,16.3,0,0,0,104.16,49Zm0,30.56a14.28,14.28,0,1,1,14.27-14.28A14.3,14.3,0,0,1,104.16,79.54Z"/><path class="cls-2" d="M109.65,71a2.77,2.77,0,0,0-2.12,1l-9.81-5.75a2.61,2.61,0,0,0,.18-1,2.66,2.66,0,0,0-.17-.94l9.8-5.71a2.79,2.79,0,0,0,4.92-1.81,2.8,2.8,0,0,0-5.6,0,2.75,2.75,0,0,0,.17,1l-9.8,5.7a2.8,2.8,0,1,0,0,3.63l9.8,5.75A2.8,2.8,0,1,0,109.65,71Zm-1.8-14.2a1.79,1.79,0,1,1,.56,1.3,1.74,1.74,0,0,1-.5-.87A1.54,1.54,0,0,1,107.85,56.8Zm-11,8.91a1.54,1.54,0,0,1-.5.85,1.76,1.76,0,0,1-1.23.5A1.8,1.8,0,1,1,96.34,64a1.74,1.74,0,0,1,.5.87,1.54,1.54,0,0,1,.06.43A1.33,1.33,0,0,1,96.83,65.71Zm12.82,9.89a1.81,1.81,0,0,1-1.8-1.8,1.61,1.61,0,0,1,.06-.44,1.65,1.65,0,0,1,.51-.86,1.76,1.76,0,0,1,1.23-.5,1.8,1.8,0,1,1,0,3.6Z"/><circle class="cls-2" cx="46.33" cy="23.6" r="1.79"/><circle class="cls-2" cx="52.33" cy="23.6" r="1.79"/><circle class="cls-2" cx="58.33" cy="23.6" r="1.79"/></g></g></svg>