<svg xmlns="http://www.w3.org/2000/svg" viewBox="0 0 112.33 89.52"><defs><style>.cls-1,.cls-3{fill:none;stroke:#29abe2;stroke-miterlimit:10;}.cls-1{stroke-width:2px;}.cls-2{fill:#29abe2;}.cls-4{fill:aqua;opacity:0.13;}</style></defs><title>zzzz</title><g id="Layer_2" data-name="Layer 2"><g id="Layer_1-2" data-name="Layer 1"><rect class="cls-1" x="41.54" y="22.85" width="69.79" height="53.28" rx="6.17"/><line class="cls-1" x1="41.54" y1="32.21" x2="111.33" y2="32.21"/><circle class="cls-2" cx="46.9" cy="27.87" r="1.79"/><circle class="cls-2" cx="52.9" cy="27.87" r="1.79"/><circle class="cls-2" cx="58.9" cy="27.87" r="1.79"/><rect class="cls-3" x="46.31" y="37.06" width="35.91" height="20.77" rx="1.15"/><rect class="cls-3" x="86.88" y="37.12" width="20" height="2.3" rx="1.15"/><rect class="cls-3" x="86.88" y="43.61" width="20" height="2.3" rx="1.15"/><rect class="cls-3" x="86.88" y="50.1" width="20" height="2.3" rx="1.15"/><rect class="cls-3" x="86.88" y="56.59" width="20" height="2.3" rx="1.15"/><rect class="cls-3" x="86.88" y="63.08" width="20" height="2.3" rx="1.15"/><rect class="cls-3" x="86.88" y="69.57" width="20" height="2.3" rx="1.15"/><path class="cls-4" d="M43.32,2.57C15.78,14.3,10.78,31.46,5.66,40.7-16,82.18,29.91,94.54,55.17,87.78A17.51,17.51,0,0,0,67.41,66.3c-4.85-17.83.22-24.41,5.17-39.23C75.33,9.6,62.3-6.38,43.32,2.57Z"/></g></g></svg>