<svg xmlns="http://www.w3.org/2000/svg" viewBox="0 0 117.66 89.52"><defs><style>.cls-1,.cls-3{fill:none;stroke:#29abe2;stroke-miterlimit:10;}.cls-1{stroke-width:2px;}.cls-2{fill:#29abe2;}.cls-4{fill:aqua;opacity:0.13;}</style></defs><title>zzzzzz</title><g id="Layer_2" data-name="Layer 2"><g id="Layer_1-2" data-name="Layer 1"><rect class="cls-1" x="46.88" y="21.64" width="69.79" height="53.28" rx="6.17"/><line class="cls-1" x1="46.88" y1="31" x2="116.66" y2="31"/><circle class="cls-2" cx="52.24" cy="26.66" r="1.79"/><circle class="cls-2" cx="58.24" cy="26.66" r="1.79"/><circle class="cls-2" cx="64.24" cy="26.66" r="1.79"/><path class="cls-2" d="M59.16,50.14l-.71.55a5,5,0,0,1-.86.56,6.38,6.38,0,0,1-1.11.46,5.42,5.42,0,0,1-1.51.16,3.92,3.92,0,0,1-2.77-1.14,4,4,0,0,1-.83-1.31,4.36,4.36,0,0,1-.31-1.65,4.43,4.43,0,0,1,.56-2.28A4,4,0,0,1,53.41,44,9.08,9.08,0,0,1,56,43.31c1-.13,2-.22,3.18-.28v-.42a2.76,2.76,0,0,0-.23-1.23,1.73,1.73,0,0,0-.64-.72,2.73,2.73,0,0,0-1-.35,7.47,7.47,0,0,0-3,.14,12,12,0,0,0-2,.65h-.13V38.9a15.41,15.41,0,0,1,1.72-.38,12,12,0,0,1,2.22-.21,10.21,10.21,0,0,1,2.24.21,4.05,4.05,0,0,1,1.63.75A3.28,3.28,0,0,1,61,40.64a5.43,5.43,0,0,1,.34,2v8.82H59.16Zm0-1.8V44.76L57.21,45a10.94,10.94,0,0,0-1.91.34,3.51,3.51,0,0,0-1.44.82,2,2,0,0,0-.56,1.53,2.17,2.17,0,0,0,.62,1.67,2.64,2.64,0,0,0,1.83.57,3.81,3.81,0,0,0,1.85-.45A8,8,0,0,0,59.16,48.34Z"/><path class="cls-2" d="M75.19,44.85a7.94,7.94,0,0,1-1.54,5.09,4.7,4.7,0,0,1-3.84,1.93,5.35,5.35,0,0,1-1.8-.26,7.28,7.28,0,0,1-1.47-.7l-.14.6h-2v-18h2.17V40a8.16,8.16,0,0,1,1.78-1.22,4.65,4.65,0,0,1,2.17-.49A4,4,0,0,1,73.93,40,8.16,8.16,0,0,1,75.19,44.85ZM73,45a7,7,0,0,0-.71-3.51A2.43,2.43,0,0,0,70,40.33a4.43,4.43,0,0,0-1.8.41,7.17,7.17,0,0,0-1.64,1v7.39a7.94,7.94,0,0,0,1.45.57,5.17,5.17,0,0,0,1.4.17A3.15,3.15,0,0,0,72,48.74,5.89,5.89,0,0,0,73,45Z"/><path class="cls-2" d="M82.56,51.8a6.81,6.81,0,0,1-2.43-.41,4.9,4.9,0,0,1-1.91-1.24A5.6,5.6,0,0,1,77,48.06a9,9,0,0,1-.44-3A8.59,8.59,0,0,1,77,42.15a6.53,6.53,0,0,1,1.22-2.08,5.15,5.15,0,0,1,1.9-1.3,6.57,6.57,0,0,1,2.44-.45,7,7,0,0,1,2,.3,10.77,10.77,0,0,1,1.76.69v2.44h-.12q-.24-.2-.6-.45a6.83,6.83,0,0,0-.88-.52,5.87,5.87,0,0,0-1.06-.41,4.55,4.55,0,0,0-1.18-.17,3.31,3.31,0,0,0-2.71,1.28,5.63,5.63,0,0,0-1,3.6,5.7,5.7,0,0,0,1,3.57,3.27,3.27,0,0,0,2.74,1.27,4.83,4.83,0,0,0,2-.44,6.38,6.38,0,0,0,1.7-1.13h.12v2.44l-.8.36a7,7,0,0,1-.88.32c-.37.11-.7.19-1,.25A6.75,6.75,0,0,1,82.56,51.8Z"/><line class="cls-3" x1="89.39" y1="51.8" x2="112.62" y2="51.8"/><line class="cls-3" x1="50.45" y1="57.81" x2="112.62" y2="57.81"/><line class="cls-3" x1="50.45" y1="63.81" x2="112.62" y2="63.81"/><line class="cls-3" x1="50.45" y1="69.81" x2="112.62" y2="69.81"/><path class="cls-4" d="M43.32,2.57C15.78,14.3,10.78,31.46,5.66,40.7-16,82.18,29.91,94.54,55.17,87.78A17.51,17.51,0,0,0,67.41,66.3c-4.85-17.83.22-24.41,5.17-39.23C75.33,9.6,62.3-6.38,43.32,2.57Z"/></g></g></svg>