<svg xmlns="http://www.w3.org/2000/svg" xmlns:xlink="http://www.w3.org/1999/xlink" viewBox="0 0 1820 826.13"><defs><style>.cls-1{fill:url(#linear-gradient);}.cls-2{fill:#fff;opacity:0.27;}</style><linearGradient id="linear-gradient" y1="413.07" x2="1820" y2="413.07" gradientUnits="userSpaceOnUse"><stop offset="0" stop-color="#00e1fd"/><stop offset="0.12" stop-color="#01cffa"/><stop offset="0.37" stop-color="#029ff4"/><stop offset="0.72" stop-color="#0552e9"/><stop offset="1" stop-color="#070fdf"/></linearGradient></defs><title>landing page banner main</title><g id="Layer_2" data-name="Layer 2"><g id="Layer_1-2" data-name="Layer 1"><path class="cls-1" d="M1820,0V692.12C1359.41,852,1055.27,842.75,855.76,797.27c-54.54-12.44-170.17-43.41-329.49-57.92a1867.56,1867.56,0,0,0-238.85-6.42A1906.51,1906.51,0,0,0,0,765.64V0Z"/><path class="cls-2" d="M83.12,629.44,0,640.23V354.47a72.66,72.66,0,0,1,68,38.25l69.92,130.1C162,567.72,133.68,622.88,83.12,629.44Z"/><path class="cls-2" d="M1737.75,681.58l-98.85,12.83a56.47,56.47,0,0,1-63.61-52.09l-4.85-69.74a56.48,56.48,0,0,1,18.77-46.08l49.43-44.06A56.48,56.48,0,0,1,1726,497.87l54.26,101C1799,633.68,1777,676.49,1737.75,681.58Z"/><path class="cls-2" d="M1191.66,116.2l-57.56,29.55c-43.6,22.38-49.72,82.22-11.56,113l49.39,39.79a67.7,67.7,0,0,0,74.42,7l90.33-48.34c54.45-29.14,44.65-110-15.18-125.3l-82.15-21A67.79,67.79,0,0,0,1191.66,116.2Z"/><path class="cls-2" d="M126.83,159.64c6.25-21.43,35-33.12,56.68-35.24,48.31-4.72,66.19,37.53,105.7,29.11,31.69-6.76,39.34-38,61.28-33.7,16.85,3.31,32.58,25.72,30.64,44.42C375.68,216.7,227.65,273.69,159,222.45,141.64,209.49,120.1,182.71,126.83,159.64Z"/></g></g></svg>